<?xml version="1.0" encoding="utf-8"?>
<svg xmlns="http://www.w3.org/2000/svg" xmlns:xlink="http://www.w3.org/1999/xlink" style="margin: auto; background: none; display: block; shape-rendering: auto;" width="200px" height="200px" viewBox="0 0 100 100" preserveAspectRatio="xMidYMid">
<g transform="translate(50 50)">
<g>
<animateTransform attributeName="transform" type="rotate" values="0;51.42857142857143" keyTimes="0;1" dur="0.3952569169960475s" repeatCount="indefinite"></animateTransform><path d="M30.8504457018047 -8.5 L45.8504457018047 -8.5 L45.8504457018047 8.5 L30.8504457018047 8.5 A32 32 0 0 1 25.880505878850084 18.820186382042188 L25.880505878850084 18.820186382042188 L35.23285290673109 30.547658619062634 L21.94171770477458 41.1469852506611 L12.589370676893575 29.41951301364066 A32 32 0 0 1 1.4220172630113586 31.96838855656784 L1.4220172630113586 31.96838855656784 L-1.9157967463333556 46.592307239295195 L-18.489571253424362 42.80945136203785 L-15.151757244079647 28.185532679310498 A32 32 0 0 1 -24.107279355740783 21.04374211171279 L-24.107279355740783 21.04374211171279 L-37.62181237427707 27.551998198476163 L-44.99783593927556 12.235527444135034 L-31.483302920739277 5.72727135737166 A32 32 0 0 1 -31.483302920739277 -5.727271357371652 L-31.483302920739277 -5.727271357371652 L-44.99783593927556 -12.235527444135021 L-37.62181237427707 -27.55199819847615 L-24.107279355740786 -21.04374211171278 A32 32 0 0 1 -15.151757244079642 -28.185532679310498 L-15.151757244079642 -28.185532679310498 L-18.48957125342436 -42.80945136203785 L-1.915796746333382 -46.592307239295195 L1.4220172630113366 -31.96838855656784 A32 32 0 0 1 12.58937067689358 -29.41951301364066 L12.58937067689358 -29.41951301364066 L21.941717704774582 -41.14698525066111 L35.232852906731075 -30.547658619062652 L25.880505878850073 -18.820186382042206 A32 32 0 0 1 30.8504457018047 -8.499999999999996 M0 -20A20 20 0 1 0 0 20 A20 20 0 1 0 0 -20" fill="#e15b64"></path></g></g>
<!-- [ldio] generated by https://loading.io/ --></svg>